<!DOCTYPE svg PUBLIC "-//W3C//DTD SVG 20010904//EN" "http://www.w3.org/TR/2001/REC-SVG-20010904/DTD/svg10.dtd">
<svg version="1.0" xmlns="http://www.w3.org/2000/svg" width="200px" height="200px" viewBox="0 0 2000 2000" preserveAspectRatio="xMidYMid meet">
<g id="layer101" fill="#022541" stroke="none">
<path d="M380 1355 c0 -8 5 -15 10 -15 6 0 10 -25 10 -55 0 -30 -4 -55 -10 -55 -5 0 -10 -4 -10 -10 0 -5 16 -10 35 -10 19 0 35 5 35 10 0 6 -4 10 -10 10 -5 0 -10 25 -10 55 0 48 2 55 20 55 11 0 20 -4 20 -10 0 -5 5 -10 10 -10 6 0 10 11 10 25 0 24 -3 25 -55 25 -42 0 -55 -3 -55 -15z"/>
<path d="M523 1363 c-8 -3 -13 -23 -13 -49 0 -24 -4 -44 -10 -44 -5 0 -10 -4 -10 -10 0 -5 11 -10 25 -10 23 0 25 4 25 46 0 38 3 45 18 42 19 -4 31 -68 13 -68 -6 0 -11 -4 -11 -10 0 -5 11 -10 25 -10 23 0 25 4 25 45 0 25 5 45 10 45 6 0 10 6 10 14 0 11 -12 15 -47 14 -27 0 -54 -3 -60 -5z"/>
<path d="M646 1348 c-22 -31 -20 -64 4 -88 21 -21 37 -24 64 -14 17 7 22 44 6 44 -5 0 -10 -4 -10 -10 0 -17 -29 -11 -39 8 -14 26 3 47 38 47 20 1 31 -5 34 -17 4 -12 15 -18 36 -18 17 0 31 -5 31 -10 0 -16 -33 -26 -38 -12 -6 19 -22 14 -22 -7 0 -23 42 -36 70 -21 14 7 20 21 20 43 0 18 3 42 6 54 6 20 2 22 -37 21 -24 0 -49 -4 -56 -10 -8 -6 -19 -6 -32 1 -31 17 -59 13 -75 -11z m159 -18 c3 -5 -1 -10 -9 -10 -8 0 -18 5 -21 10 -3 6 1 10 9 10 8 0 18 -4 21 -10z"/>
<path d="M860 1345 c0 -25 25 -36 32 -13 2 6 11 9 19 6 9 -3 3 -10 -18 -22 -38 -19 -43 -50 -12 -66 29 -16 69 -4 69 20 0 21 -26 28 -32 9 -2 -7 -11 -10 -18 -7 -10 3 -4 10 18 22 53 27 37 76 -25 76 -29 0 -33 -3 -33 -25z"/>
<path d="M1023 1363 c-16 -6 -17 -53 -2 -53 7 0 17 7 24 17 7 9 19 14 29 10 25 -10 19 -22 -16 -38 -25 -10 -34 -21 -36 -43 -4 -35 10 -46 61 -46 33 0 37 3 37 25 0 16 -6 25 -15 25 -8 0 -15 -4 -15 -10 0 -5 -9 -10 -20 -10 -31 0 -23 18 15 34 29 12 35 20 35 45 0 42 -49 64 -97 44z"/>
<path d="M1152 1358 c-6 -6 -12 -29 -12 -50 0 -29 6 -41 25 -54 53 -34 106 28 74 85 -16 29 -66 40 -87 19z m63 -39 c8 -24 -16 -55 -34 -45 -12 8 -15 49 -4 59 13 14 32 7 38 -14z"/>
<path d="M1281 1357 c-6 -6 -11 -28 -11 -49 0 -21 -4 -38 -10 -38 -5 0 -10 -4 -10 -10 0 -5 11 -10 25 -10 23 0 25 4 25 46 0 38 3 45 18 42 19 -4 31 -68 13 -68 -6 0 -11 -4 -11 -10 0 -5 11 -10 25 -10 23 0 25 4 25 45 0 25 5 45 10 45 6 0 10 6 10 14 0 18 -92 20 -109 3z"/>
<path d="M1400 1354 c0 -9 11 -30 25 -46 14 -17 23 -33 19 -37 -4 -3 -9 0 -11 7 -7 20 -33 14 -33 -8 0 -17 7 -20 45 -20 54 0 58 13 18 61 l-28 32 28 -7 c23 -5 27 -3 27 14 0 17 -7 20 -45 20 -35 0 -45 -4 -45 -16z"/>
<path d="M1510 1355 c-21 -25 -7 -50 28 -53 17 -2 32 -8 32 -13 0 -15 -33 -24 -38 -11 -6 19 -22 14 -22 -7 0 -23 42 -36 70 -21 14 7 20 21 20 43 0 18 3 42 6 54 5 20 2 21 -40 21 -26 0 -50 -5 -56 -13z m55 -25 c3 -5 -1 -10 -9 -10 -8 0 -18 5 -21 10 -3 6 1 10 9 10 8 0 18 -4 21 -10z"/>
<path d="M702 1158 c2 -14 11 -24 24 -26 12 -2 32 -14 45 -28 18 -19 32 -24 72 -24 32 0 57 6 68 16 16 15 20 15 41 0 13 -9 42 -16 68 -16 37 0 52 5 70 25 13 14 34 25 47 25 18 0 23 5 23 25 l0 25 -231 0 -230 0 3 -22z"/>
<path d="M557 1042 c-15 -16 -17 -48 -17 -235 0 -212 0 -216 22 -231 19 -14 72 -16 375 -16 340 0 354 1 373 20 19 19 20 33 20 233 0 195 -2 215 -18 230 -17 15 -58 17 -379 17 -336 0 -361 -1 -376 -18z m153 -262 l0 -150 -50 0 -50 0 0 150 0 150 50 0 50 0 0 -150z m380 0 l0 -150 -155 0 -155 0 0 150 0 150 155 0 155 0 0 -150z m170 0 l0 -150 -50 0 -50 0 0 150 0 150 50 0 50 0 0 -150z"/>
</g>
<g id="layer102" fill="#4c96d7" stroke="none">
<path d="M100 1425 c0 -13 107 -15 900 -15 793 0 900 2 900 15 0 13 -107 15 -900 15 -793 0 -900 -2 -900 -15z"/>
<path d="M882 1158 c2 -13 11 -24 21 -26 10 -2 29 -14 42 -28 35 -35 112 -34 145 1 13 14 34 25 47 25 18 0 23 5 23 25 l0 25 -141 0 c-140 0 -140 0 -137 -22z"/>
<path d="M732 1037 c-21 -22 -22 -32 -22 -226 0 -201 0 -202 25 -226 l24 -25 266 0 c252 0 266 1 285 20 19 19 20 33 20 233 0 195 -2 215 -18 230 -16 15 -51 17 -289 17 -269 0 -270 0 -291 -23z m528 -257 l0 -150 -240 0 -240 0 0 150 0 150 240 0 240 0 0 -150z"/>
</g>


</svg>